<?xml version="1.0" encoding="UTF-8"?>
<svg id="Layer_1" xmlns="http://www.w3.org/2000/svg" width="542.69" height="432.68" viewBox="0 0 542.69 432.68">
  <path d="M271.56.02c72.91,0,145.81-.05,218.72.03,26.31.03,46.53,15.75,51.56,39.95.74,3.57.81,7.32.81,10.99.04,110.23.06,220.46.01,330.68-.01,28.82-20.82,50.61-49.84,50.77-73.12.39-146.25.2-219.37.07-14.32-.03-23.58-9.31-23.33-22.41.24-12.52,4.81-97.65-61.69-164.15S43.9,181.53,28.99,180.79c-8.59-.43-17.24,1.03-23.26-5.36-3.72-3.95-5.66-8.61-5.65-14.13.04-38.19-.22-76.38.13-114.57C.45,20.77,23.68.11,52.18.06,116.63-.05,181.07.02,245.52.02c8.68,0,17.36,0,26.04,0Z" style="fill: #dcdaff;"/>
  <path d="M209.27,404.3c-.18,4.31.58,8.67-.74,12.93-2.92,9.43-13.21,16.31-22.57,15.03-10.97-1.5-18.8-9.61-19.15-20.44-1-31.57-9.13-60.85-28.29-86.36-27.99-37.26-65.26-57.36-112.01-59.46-2.59-.12-5.23-.11-7.77-.56-12.27-2.2-19.43-11.31-18.6-23.46.75-10.97,10.13-19.45,22.18-19.42,26.14.07,51.44,5.04,75.08,16.15,61.59,28.92,98.29,77.21,110.1,144.24,1.23,7,2.26,14.15,1.77,21.36Z" style="fill: #dcdaff;"/>
  <path d="M125.98,407.43c.95,8.4-1.61,16.47-10.3,21.69-13.69,8.23-31.17-.68-32.18-16.62-1.03-16.25-5.12-31.14-16.63-43.31-11.71-12.38-25.81-19.35-43.03-19.92-13.01-.43-22.17-7.68-23.6-18.16-1.91-14.02,7.7-25.6,22.09-25.17,39.72,1.19,70.04,19,90.25,53.28,8.94,15.16,13.21,31.72,13.4,48.2Z" style="fill: #dcdaff;"/>
  <path d="M.1,410.52c.1-11.9,9.94-21.58,21.66-21.3,11.68.27,21.06,10.24,20.86,22.18-.19,11.62-9.59,20.84-21.38,20.96-11.65.12-21.24-9.78-21.14-21.84Z" style="fill: #dcdaff;"/>
</svg>