<?xml version="1.0" encoding="UTF-8"?>
<svg id="Layer_1" xmlns="http://www.w3.org/2000/svg" width="207.69" height="220.64" viewBox="0 0 207.69 220.64">
  <path d="M118.75,64.18c0,6.33,2.5,12.14,7.21,16.84,6.63,6.59,13.89,7.49,18.83,7.1,5.88-.48,11.79-3.15,15.82-7.16l1.03-1.03c2.97-2.96,4.79-4.77,6.56-6.48l12.17,11.81,8.55-8.55.12-.21-11.99-11.95,8.53-8.5-8.92-8.88-8.53,8.51s-24.93-24.89-28.02-28c-1.66-1.68-2.68-3.45-2.68-6.26,0-2.98,1.35-4.96,2.5-6.1,1.67-1.67,4.12-2.7,6.37-2.7,3.43,0,5.54,1.81,6.26,2.58l.19.18.19-.18,5.07-5.03,3.5-3.48.15-.17-.24-.26c-2.29-2.34-7.33-6.26-15.14-6.26-5.95,0-11.46,2.36-15.51,6.65-3.79,4-5.95,9.37-5.95,14.73,0,8.9,5.08,14.36,8.68,17.69l-7.59,7.39c-4.41,4.39-7.16,11.19-7.16,17.71ZM134.85,55.4l7.53-7.51,16.86,16.63c-.77.79-4.04,4.07-7.63,7.62-4.34,4.25-11.53,5.15-16.76-.05-2.28-2.29-3.49-5.12-3.49-8.22s1.31-6.3,3.49-8.48ZM189.8,117.1c-11.52-11.44-26.86-17.73-43.16-17.73s-31.64,6.29-43.16,17.73c-11.52,11.45-17.87,26.65-17.87,42.82s6.35,31.37,17.87,42.81c11.53,11.44,26.86,17.74,43.16,17.74s31.64-6.29,43.16-17.74c11.53-11.44,17.88-26.63,17.88-42.81s-6.35-31.38-17.88-42.82ZM146.64,204.89c-12.11,0-23.5-4.68-32.06-13.18-8.56-8.49-13.29-19.79-13.29-31.79s4.73-23.31,13.29-31.8c8.56-8.51,19.95-13.18,32.06-13.18s23.5,4.68,32.07,13.18c8.55,8.49,13.28,19.78,13.28,31.8,0,24.79-20.34,44.97-45.34,44.97ZM85.7,72.59c0,25.77-14.21,49.26-37.12,61.41,6.55,4.12,12.06,9.82,15.87,16.51,4.03,7.02,6.16,15.02,6.16,23.15,0,12.54-4.94,24.34-13.89,33.22-8.93,8.87-20.84,13.76-33.49,13.76H.03L0,3h15.56c18.73,0,36.36,7.23,49.62,20.39,13.26,13.14,20.52,30.62,20.52,49.2ZM54.07,34.39c-10.23-10.14-23.84-15.75-38.29-15.82v108.03c14.45-.07,28.06-5.68,38.29-15.81,10.3-10.2,15.93-23.77,15.93-38.21s-5.64-27.98-15.93-38.19ZM15.78,205.07h7.43c17.46,0,31.67-14.09,31.67-31.41,0-8.39-3.29-16.27-9.26-22.22-5.99-5.92-14-9.18-22.47-9.18,0,0-6.08-.03-7.36-.03v62.85Z" style="fill: #dcdaff; fill-rule: evenodd;"/>
</svg>