<?xml version="1.0" encoding="UTF-8"?>
<svg id="Layer_1" xmlns="http://www.w3.org/2000/svg" width="8996.94" height="2766.02" viewBox="0 0 8996.94 2766.02">
  <path d="M1300.23,1370.2c196.04.67,348.2,153.98,347.32,349.96-.87,194.53-156.03,346.93-352.15,345.88-193.03-1.03-348.41-159.33-346.48-352.97,1.91-190.78,158.4-343.52,351.31-342.86ZM1420.61,1719.81c.95-70.16-50.06-122.31-120.07-122.77-68.55-.45-120.55,48.87-122.2,115.9-1.71,69.68,49.34,124.34,117.7,126.02,68.79,1.7,123.65-50.77,124.57-119.16Z"/>
  <path d="M1441.67,679.31c-.01,79.67-64.51,144.99-143.16,144.98-79.44-.01-144.68-64.49-145.04-143.34-.36-78.45,65.87-145.27,143.57-144.86,80.1.42,144.64,64.34,144.63,143.23Z"/>
  <path d="M2547.49,1124.38c-85.92-124.7-246.99-147.86-385.63-73.97-71.83,38.29-116.05-8.96-132.88-45-.04-217.72-.15-485.45.09-703.17.05-52.86-4.6-102.89-55.43-134.34H625.8c-43.97,27.39-55.05,69.86-54.96,117.98.21,111.39-.11,222.77-.11,334.16s-.03,275.13-.03,387.7c-16.85,32.27-51.42,90.89-125.3,42.22-136.9-90.17-299.68-55.6-388.27,67.68-74.83,104.14-76.32,256.39-3.52,362.04,85.93,124.7,234.02,144.87,385.63,73.96,71.67-33.52,113.9,8.37,131.41,42.03-.01,224.18.04,498.35-.05,722.53-.03,54.32,2.18,106.94,55.2,139.95h1347.84c50.67-31.53,55.48-81.48,55.43-134.38-.19-224.84-.1-499.67-.07-724.5,16.2-34.57,59.08-82.44,126.71-45.15,144.79,79.83,299.67,55.6,388.25-67.68,74.84-104.14,76.32-256.39,3.53-362.03ZM1302.37,402.04c155.31.9,275.21,123.26,274.67,280.33-.53,156.13-121.07,274.1-279.73,273.77-156.3-.33-275.83-121.64-274.71-278.81,1.11-155.58,123.68-276.19,279.77-275.29ZM1299.51,2216.68c-278,.64-501.24-220.58-503.91-499.38-2.62-272.9,224.95-498.16,504.86-499.73,275.44-1.55,503.82,225.29,503.95,500.57.12,275.54-225.06,497.89-504.9,498.54Z"/>
</svg>