<?xml version="1.0" encoding="UTF-8"?>
<svg id="Layer_1" xmlns="http://www.w3.org/2000/svg" width="16081.74" height="14982.58" viewBox="0 0 16081.74 14982.58">
  <path d="M14037.63,5223.95c-391.48-2468.42-1810.22-4110.86-4160.77-4950.47-417.53-149.14-855.02-210.13-1291.39-273.48h-1106.59c-23.29,6.16-46.24,15.51-69.92,18.02-1326.99,140.63-2498.92,648.97-3467.54,1561.36-1590.64,1498.29-2233.86,3348.43-1886.87,5510.8,438.25,2731.1,2806.22,4861.64,5555.63,5027.2,1216.62,73.26,2359.5-182.67,3425.33-783.98,2145.61-1210.51,3387.54-3679.25,3002.12-6109.44ZM4957.47,4979.81c-26.37,66.36-301.42,243.67-567.09,160.88-191.66-59.72-178.25-250.24-144.76-396.58,104.16-455.24,568.49-1096.78,923.2-1451.49,377.84-377.84,803.19-599.54,1293.27-806.84,507.57-214.68,1046.55-323.54,1601.98-323.54s1094.41,108.85,1601.97,323.54c490.09,207.29,930.17,503.97,1308.01,881.82,343.01,343.01,610.1,741.25,819.72,1174.84,21.29,44.03,139.04,339.44-77.6,442.35-204.88,97.32-518.73,42.15-615.12-165.16-551.81-1186.73-1644.35-1900.42-3036.98-1900.42s-2599.84,785.29-3106.59,2060.6ZM8101.97,9790.08c-285.92,0-517.7-231.78-517.7-517.7s231.78-517.7,517.7-517.7,517.7,231.78,517.7,517.7-231.78,517.7-517.7,517.7ZM9239.09,7891.98c-136.56,129.97-382.78-19.01-457.7-86.96-332.08-301.19-413.17-334.66-700.45-334.66-257.19,0-366.41,65.82-670.36,307.63-112.49,89.49-300.16,247.64-479.67,89.67-127.25-111.98-99.92-280.21-26.07-380.48,98.31-133.48,60.79-99.57,235.49-241.27,281.83-228.61,405.4-393.37,937.97-393.37s655.61,172.26,930.72,393.37c162.37,130.5,141.31,110.68,253.44,230.17,95.56,101.84,173.77,228.28-23.38,415.91ZM10426.15,6520.39c-168.89,129.48-415,49.89-528.11-104.26-603.3-822.24-1009.74-1077.5-1801.77-1077.5s-1144.66,362.97-1758.35,1077.5c-115.45,134.42-396.29,274.04-586.03,127.43-169.9-131.29-38.32-441.6,11.58-521.29,189.88-303.21,377.25-498.95,601.94-723.65,224.7-224.7,486.44-401.15,777.96-524.45,301.98-127.73,622.58-192.49,952.89-192.49s650.9,64.76,952.88,192.49c291.52,123.3,553.26,299.75,777.96,524.45,224.69,224.7,512.16,522.85,662.75,812.46,34.68,66.7,110.05,276.09-63.71,409.31Z"/>
  <path d="M15787.92,11589.69c-327.91-330.51-1011.05-1024.84-1340.53-1353.78-123.54-123.34-410.99-488.99-499.43-338.91-405.19,687.57-575.77,830-819.82,1083.34-442.04,458.87-1055.4,923.48-1752.72,1290.98-237.67,125.26-669.68,301.54-1256.79,534.82-151.86,60.34,70.39,286.48,181.3,397.02,504.96,503.27,1008.26,1008.2,1512.77,1511.92,328.27,327.76,680.94,271.61,888.83-142.18,245.97-489.58,369.49-1075.05,609.53-1567.54,56.53-115.98,134.96-190.69,249.82-246.81,496.6-242.65,1503.7-155.62,2026.27-335.71,426.89-147.11,506.56-524.93,200.77-833.16Z"/>
  <path d="M5963.11,12806.14c-587.11-233.28-1019.11-409.56-1256.79-534.82-697.32-367.5-1310.68-832.11-1752.72-1290.98-244.05-253.34-414.62-395.77-819.82-1083.34-88.44-150.08-375.89,215.57-499.44,338.91-329.49,328.94-1012.63,967.74-1340.53,1298.25-305.8,308.23-226.12,686.04,200.77,833.16,522.57,180.09,1529.67,148.59,2026.27,391.24,114.86,56.12,193.3,130.84,249.83,246.81,240.04,492.49,363.56,1077.95,609.53,1567.54,207.89,413.79,560.56,469.94,888.83,142.18,504.5-503.73,1007.81-1008.65,1512.77-1511.92,110.91-110.54,333.15-336.68,181.3-397.02Z"/>
</svg>