<?xml version="1.0" encoding="UTF-8"?>
<svg id="Layer_1" xmlns="http://www.w3.org/2000/svg" width="8996.94" height="2766.02" viewBox="0 0 8996.94 2766.02">
  <path d="M3309.1,1410.45v-205.44c7.83-60.35,16.42-120.53,31.35-179.68,137.82-546.06,680.24-903.25,1224.09-849.94,188.57,18.48,360.16,82,516.38,188.37,27.04,18.41,26.67,18.42,2.27,40.5-111.75,101.14-158.96,227.09-137.47,375.9,40.73,281.98,331.14,440.11,591.75,324.01,26.62-11.86,28.18-11.08,33.31,17.97,23.02,130.36,22.52,260.81-1.75,390.78-105.62,565.46-648.37,1037.56-1309.82,919.85-459.84-81.83-760.28-358.42-906.65-801.75-23.63-71.57-33.32-146.18-43.45-220.56ZM4446.55,774.27c-272.35-3.34-533.29,190.08-538.93,539.09-4.76,294.27,240.86,536.26,537.13,536.64,296.93.38,544.55-240.39,540.46-533.6-4.89-350.82-265.29-545.31-538.66-542.13Z"/>
  <path d="M5640.08,464.42c0,81.82.67,163.64-.15,245.45-1.39,139.14-79.3,243.64-205.73,277.55-154.46,41.42-311.19-54.07-342.67-206.77-39.3-190.59,103.73-317.35,232.91-334.74,46.06-6.2,90.09-1.88,132.63,14.76,20.55,8.04,25.76,4.57,25.62-17.38-.74-117.71-.19-235.43-.44-353.15-.05-24.23,4.57-46.53,21.33-64.89,22.02-24.13,50.05-29.44,80.29-22.32,76.32,17.98,152.57,36.3,228.5,55.83,48.75,12.54,73.92,54.08,61.92,98.14-11.26,41.32-52.49,63.67-99.06,53.07-35.78-8.15-71.61-16.27-106.98-25.97-21.59-5.92-28.51.73-28.34,22.45.67,85.99.28,171.98.28,257.98h-.1Z"/>
  <path d="M4444.26,1703.01c-179.16,3.71-388.85-120.6-393.37-399.03-3.44-211.97,182.4-392.39,396.09-389.55,223.27,2.97,396.14,176.44,393.87,391.05-2.96,279.28-215.46,402.94-396.58,397.54ZM4448.3,1201.38c-63.56-.77-111.8,44.34-113.99,106.59-2,57.11,51.02,112.25,109.74,114.11,57.59,1.83,112.24-51.07,113.53-109.88,1.36-61.98-46.05-110.05-109.28-110.82Z"/>
</svg>