<?xml version="1.0" encoding="UTF-8"?>
<svg id="Layer_1" xmlns="http://www.w3.org/2000/svg" width="3055.84" height="2891.49" viewBox="0 0 3055.84 2891.49">
  <path d="M1283.87,2176.06c128.92.44,228.97,101.26,228.4,230.13-.57,127.92-102.61,228.14-231.58,227.45-126.94-.68-229.12-104.77-227.84-232.12,1.25-125.46,104.17-225.9,231.02-225.47ZM1363.03,2405.96c.63-46.14-32.92-80.43-78.96-80.73-45.08-.29-79.27,32.14-80.36,76.22-1.13,45.82,32.44,81.76,77.4,82.87,45.24,1.12,81.31-33.39,81.92-78.36Z"/>
  <path d="M1376.88,1721.72c0,52.39-42.43,95.35-94.14,95.34-52.24,0-95.15-42.41-95.38-94.26-.23-51.59,43.31-95.53,94.41-95.26,52.67.27,95.12,42.31,95.11,94.19Z"/>
  <path d="M2104.07,2014.41c-56.5-82.01-162.42-97.23-253.59-48.64-47.24,25.18-76.32-5.89-87.38-29.59-.03-143.18-.1-319.23.06-462.41.04-34.76-3.03-67.66-36.45-88.35h-886.35c-28.91,18.01-36.2,45.94-36.14,77.58.14,73.25-.07,146.49-.07,219.74s-.02,180.93-.02,254.95c-11.08,21.22-33.82,59.77-82.4,27.77-90.02-59.3-197.07-36.56-255.33,44.5-49.21,68.49-50.19,168.6-2.32,238.08,56.51,82,153.89,95.26,253.59,48.64,47.13-22.04,74.9,5.5,86.42,27.64,0,147.42.03,327.72-.03,475.14-.02,35.72,1.43,70.32,36.3,92.03h886.35c33.32-20.74,36.49-53.58,36.45-88.37-.12-147.85-.06-328.59-.05-476.44,10.66-22.73,38.85-54.21,83.32-29.69,95.22,52.49,197.06,36.56,255.32-44.5,49.22-68.49,50.19-168.6,2.32-238.07ZM1285.27,1539.4c102.13.59,180.98,81.06,180.63,184.35-.35,102.67-79.62,180.25-183.95,180.03-102.78-.21-181.39-79.99-180.65-183.34.73-102.31,81.33-181.62,183.98-181.03ZM1283.39,2732.71c-182.81.42-329.62-145.06-331.37-328.39-1.72-179.46,147.93-327.59,332-328.63,181.13-1.02,331.31,148.15,331.4,329.18.08,181.2-148,327.41-332.03,327.84Z"/>
</svg>